<?xml version="1.0" encoding="UTF-8"?>
<svg xmlns="http://www.w3.org/2000/svg" width="560" height="520" viewBox="0 0 560 520" font-family="Segoe UI, Arial, sans-serif">
<rect width="560" height="520" fill="#ffffff"/>
<text x="280.0" y="30" text-anchor="middle" font-size="18" font-weight="bold" fill="#1a1a1a">RPCE memory-model calibration (held-out)</text>
<line x1="70.0" y1="470.0" x2="70.0" y2="70.0" stroke="#e6e6e6" stroke-width="1"/>
<line x1="70.0" y1="470.0" x2="470.0" y2="470.0" stroke="#e6e6e6" stroke-width="1"/>
<text x="70.0" y="488.0" text-anchor="middle" font-size="11" fill="#555">0</text>
<text x="60.0" y="474.0" text-anchor="end" font-size="11" fill="#555">0</text>
<line x1="170.0" y1="470.0" x2="170.0" y2="70.0" stroke="#e6e6e6" stroke-width="1"/>
<line x1="70.0" y1="370.0" x2="470.0" y2="370.0" stroke="#e6e6e6" stroke-width="1"/>
<text x="170.0" y="488.0" text-anchor="middle" font-size="11" fill="#555">0.25</text>
<text x="60.0" y="374.0" text-anchor="end" font-size="11" fill="#555">0.25</text>
<line x1="270.0" y1="470.0" x2="270.0" y2="70.0" stroke="#e6e6e6" stroke-width="1"/>
<line x1="70.0" y1="270.0" x2="470.0" y2="270.0" stroke="#e6e6e6" stroke-width="1"/>
<text x="270.0" y="488.0" text-anchor="middle" font-size="11" fill="#555">0.5</text>
<text x="60.0" y="274.0" text-anchor="end" font-size="11" fill="#555">0.5</text>
<line x1="370.0" y1="470.0" x2="370.0" y2="70.0" stroke="#e6e6e6" stroke-width="1"/>
<line x1="70.0" y1="170.0" x2="470.0" y2="170.0" stroke="#e6e6e6" stroke-width="1"/>
<text x="370.0" y="488.0" text-anchor="middle" font-size="11" fill="#555">0.75</text>
<text x="60.0" y="174.0" text-anchor="end" font-size="11" fill="#555">0.75</text>
<line x1="470.0" y1="470.0" x2="470.0" y2="70.0" stroke="#e6e6e6" stroke-width="1"/>
<line x1="70.0" y1="70.0" x2="470.0" y2="70.0" stroke="#e6e6e6" stroke-width="1"/>
<text x="470.0" y="488.0" text-anchor="middle" font-size="11" fill="#555">1</text>
<text x="60.0" y="74.0" text-anchor="end" font-size="11" fill="#555">1</text>
<rect x="70.0" y="70.0" width="400" height="400" fill="none" stroke="#999" stroke-width="1"/>
<!-- diagonal: y=x perfect calibration -->
<line id="diagonal" x1="70.0" y1="470.0" x2="470.0" y2="70.0" stroke="#c0392b" stroke-width="1.5" stroke-dasharray="6 4"/>
<polyline points="97.6,432.4 127.6,418.3 166.3,376.4 208.4,340.8 242.8,299.4 284.6,240.3 326.2,209.0 367.2,173.2 407.2,142.3 440.8,126.5" fill="none" stroke="#2c6fbb" stroke-width="2"/>
<circle cx="97.6" cy="432.4" r="5.8" fill="#2c6fbb" fill-opacity="0.75" stroke="#1a4c86" stroke-width="1"/>
<text x="97.6" y="423.7" text-anchor="middle" font-size="9" fill="#333">n=245</text>
<circle cx="127.6" cy="418.3" r="9.6" fill="#2c6fbb" fill-opacity="0.75" stroke="#1a4c86" stroke-width="1"/>
<text x="127.6" y="405.7" text-anchor="middle" font-size="9" fill="#333">n=588</text>
<circle cx="166.3" cy="376.4" r="9.9" fill="#2c6fbb" fill-opacity="0.75" stroke="#1a4c86" stroke-width="1"/>
<text x="166.3" y="363.6" text-anchor="middle" font-size="9" fill="#333">n=607</text>
<circle cx="208.4" cy="340.8" r="8.8" fill="#2c6fbb" fill-opacity="0.75" stroke="#1a4c86" stroke-width="1"/>
<text x="208.4" y="329.0" text-anchor="middle" font-size="9" fill="#333">n=514</text>
<circle cx="242.8" cy="299.4" r="8.4" fill="#2c6fbb" fill-opacity="0.75" stroke="#1a4c86" stroke-width="1"/>
<text x="242.8" y="288.0" text-anchor="middle" font-size="9" fill="#333">n=476</text>
<circle cx="284.6" cy="240.3" r="10.0" fill="#2c6fbb" fill-opacity="0.75" stroke="#1a4c86" stroke-width="1"/>
<text x="284.6" y="227.3" text-anchor="middle" font-size="9" fill="#333">n=620</text>
<circle cx="326.2" cy="209.0" r="9.9" fill="#2c6fbb" fill-opacity="0.75" stroke="#1a4c86" stroke-width="1"/>
<text x="326.2" y="196.2" text-anchor="middle" font-size="9" fill="#333">n=607</text>
<circle cx="367.2" cy="173.2" r="8.6" fill="#2c6fbb" fill-opacity="0.75" stroke="#1a4c86" stroke-width="1"/>
<text x="367.2" y="161.6" text-anchor="middle" font-size="9" fill="#333">n=500</text>
<circle cx="407.2" cy="142.3" r="9.6" fill="#2c6fbb" fill-opacity="0.75" stroke="#1a4c86" stroke-width="1"/>
<text x="407.2" y="129.7" text-anchor="middle" font-size="9" fill="#333">n=581</text>
<circle cx="440.8" cy="126.5" r="6.0" fill="#2c6fbb" fill-opacity="0.75" stroke="#1a4c86" stroke-width="1"/>
<text x="440.8" y="117.5" text-anchor="middle" font-size="9" fill="#333">n=262</text>
<text x="270.0" y="512.0" text-anchor="middle" font-size="13" fill="#1a1a1a">Predicted recall probability</text>
<text x="20" y="270.0" text-anchor="middle" font-size="13" fill="#1a1a1a" transform="rotate(-90 20 270.0)">Observed pass frequency</text>
<text x="280.0" y="498.0" text-anchor="middle" font-size="12" fill="#1a1a1a">n=5000 held-out reviews   Brier=0.1852   LogLoss=0.5528   ECE=0.0192</text>
<text x="280.0" y="514.0" text-anchor="middle" font-size="10" fill="#888">dashed red = perfect calibration (y=x); blue = observed; seeded synthetic cohort</text>
</svg>